<svg width="18" height="18" viewBox="0 0 18 18" fill="none" xmlns="http://www.w3.org/2000/svg">
<path d="M15.5411 17.3628L11.5875 13.1625C11.025 13.6125 10.3781 13.9688 9.64687 14.2312C8.91562 14.4937 8.1375 14.625 7.3125 14.625C5.26875 14.625 3.53906 13.9172 2.12344 12.5016C0.707812 11.0859 0 9.35625 0 7.3125C0 5.26875 0.707812 3.53906 2.12344 2.12344C3.53906 0.707812 5.26875 0 7.3125 0C9.35625 0 11.0859 0.707812 12.5016 2.12344C13.9172 3.53906 14.625 5.26875 14.625 7.3125C14.625 8.1375 14.4937 8.91562 14.2312 9.64687C13.9688 10.3781 13.6125 11.025 13.1625 11.5875L17.1306 15.9146L15.5411 17.3628ZM7.3125 12.375C8.71875 12.375 9.91406 11.8828 10.8984 10.8984C11.8828 9.91406 12.375 8.71875 12.375 7.3125C12.375 5.90625 11.8828 4.71094 10.8984 3.72656C9.91406 2.74219 8.71875 2.25 7.3125 2.25C5.90625 2.25 4.71094 2.74219 3.72656 3.72656C2.74219 4.71094 2.25 5.90625 2.25 7.3125C2.25 8.71875 2.74219 9.91406 3.72656 10.8984C4.71094 11.8828 5.90625 12.375 7.3125 12.375Z" fill="#E0E4EA"/>
</svg>
